<?xml version="1.0" encoding="utf-8"?>
<!-- Generator: Adobe Illustrator 16.0.0, SVG Export Plug-In . SVG Version: 6.00 Build 0)  -->
<!DOCTYPE svg PUBLIC "-//W3C//DTD SVG 1.1//EN" "http://www.w3.org/Graphics/SVG/1.1/DTD/svg11.dtd">
<svg version="1.1" id="Capa_1" xmlns="http://www.w3.org/2000/svg" xmlns:xlink="http://www.w3.org/1999/xlink" x="0px" y="0px"
	 width="12px" height="12px" viewBox="506 378 12 12" enable-background="new 506 378 12 12" xml:space="preserve">
<g>
	<path fill="#FFFFFF" d="M513.061,384l4.72-4.719c0.293-0.293,0.293-0.768,0-1.061c-0.294-0.293-0.769-0.293-1.062,0L512,382.939
		l-4.719-4.719c-0.293-0.293-0.768-0.293-1.061,0c-0.293,0.293-0.293,0.768,0,1.061l4.719,4.719l-4.719,4.719
		c-0.293,0.293-0.293,0.768,0,1.061c0.146,0.146,0.338,0.22,0.53,0.22s0.384-0.073,0.531-0.22l4.719-4.719l4.719,4.719
		c0.146,0.146,0.339,0.22,0.53,0.22c0.192,0,0.384-0.073,0.531-0.22c0.293-0.293,0.293-0.769,0-1.062L513.061,384z"/>
</g>
</svg>
