<?xml version="1.0" encoding="utf-8"?>
<!-- Generator: Adobe Illustrator 16.0.0, SVG Export Plug-In . SVG Version: 6.00 Build 0)  -->
<!DOCTYPE svg PUBLIC "-//W3C//DTD SVG 1.1//EN" "http://www.w3.org/Graphics/SVG/1.1/DTD/svg11.dtd">
<svg version="1.1" id="Capa_1" xmlns="http://www.w3.org/2000/svg" xmlns:xlink="http://www.w3.org/1999/xlink" x="0px" y="0px"
	 width="12px" height="12px" viewBox="168.167 168.167 12 12" enable-background="new 168.167 168.167 12 12" xml:space="preserve">
<g>
	<path fill="#FFFFFF" d="M179.761,170.531l-3.636,3.636l3.636,3.637c0.541,0.541,0.541,1.417,0,1.958
		c-0.271,0.271-0.625,0.405-0.979,0.405c-0.354,0-0.709-0.135-0.979-0.405l-3.636-3.637l-3.637,3.637
		c-0.27,0.271-0.625,0.405-0.979,0.405c-0.354,0-0.708-0.135-0.979-0.405c-0.541-0.541-0.541-1.417,0-1.958l3.636-3.637
		l-3.636-3.636c-0.541-0.541-0.541-1.417,0-1.958c0.541-0.541,1.417-0.541,1.958,0l3.636,3.636l3.637-3.636
		c0.541-0.541,1.417-0.541,1.958,0S180.302,169.99,179.761,170.531z"/>
</g>
</svg>
