<?xml version="1.0" encoding="utf-8"?>
<!-- Generator: Adobe Illustrator 16.0.0, SVG Export Plug-In . SVG Version: 6.00 Build 0)  -->
<!DOCTYPE svg PUBLIC "-//W3C//DTD SVG 1.1//EN" "http://www.w3.org/Graphics/SVG/1.1/DTD/svg11.dtd">
<svg version="1.1" id="Capa_1" xmlns="http://www.w3.org/2000/svg" xmlns:xlink="http://www.w3.org/1999/xlink" x="0px" y="0px"
	 width="43px" height="24px" viewBox="78.5 0 43 24" enable-background="new 78.5 0 43 24" xml:space="preserve">
<g>
	<g>
		<path fill="#FFFFFF" d="M113.792,10.561c1.106-0.778,1.84-2.072,1.84-3.531c0-2.386-1.931-4.315-4.315-4.315
			C108.93,2.715,107,4.644,107,7.03c0,1.458,0.726,2.753,1.84,3.531c-0.949,0.329-1.817,0.837-2.55,1.496
			c-1.01-0.86-2.198-1.519-3.501-1.907c1.578-0.958,2.641-2.7,2.641-4.682c0-3.021-2.445-5.467-5.467-5.467
			s-5.467,2.453-5.467,5.467c0,1.982,1.055,3.725,2.64,4.682c-1.286,0.389-2.461,1.04-3.463,1.885
			c-0.733-0.643-1.585-1.145-2.521-1.466c1.107-0.778,1.84-2.072,1.84-3.53c0-2.386-1.93-4.315-4.315-4.315
			s-4.315,1.929-4.315,4.315c0,1.458,0.726,2.752,1.84,3.53c-2.969,1.024-5.101,3.844-5.101,7.158v0.493
			c0,0.015,0.015,0.03,0.03,0.03h9.146c-0.052,0.411-0.082,0.838-0.082,1.264v0.509c0,2.199,1.78,3.979,3.979,3.979h11.592
			c2.199,0,3.979-1.779,3.979-3.979v-0.509c0-0.426-0.029-0.853-0.083-1.264h9.208c0.015,0,0.029-0.016,0.029-0.03v-0.493
			C118.885,14.404,116.76,11.585,113.792,10.561z M108.197,7.022c0-1.72,1.398-3.119,3.119-3.119c1.72,0,3.118,1.398,3.118,3.119
			c0,1.698-1.369,3.082-3.06,3.119c-0.021,0-0.037,0-0.059,0c-0.023,0-0.038,0-0.061,0C109.559,10.111,108.197,8.728,108.197,7.022z
			 M95.678,5.467c0-2.355,1.914-4.271,4.271-4.271c2.355,0,4.271,1.915,4.271,4.271c0,2.274-1.788,4.136-4.024,4.263
			c-0.082,0-0.164,0-0.246,0c-0.083,0-0.165,0-0.247,0C97.465,9.603,95.678,7.741,95.678,5.467z M85.536,7.022
			c0-1.72,1.398-3.119,3.118-3.119c1.721,0,3.119,1.398,3.119,3.119c0,1.698-1.369,3.082-3.06,3.119c-0.022,0-0.037,0-0.06,0
			s-0.037,0-0.06,0C86.904,10.111,85.536,8.728,85.536,7.022z M90.487,17.045h-8.175c0.336-3.186,3.028-5.684,6.297-5.707
			c0.016,0,0.03,0,0.045,0s0.03,0,0.045,0c1.556,0.008,2.977,0.583,4.076,1.519C91.698,14.022,90.898,15.459,90.487,17.045z
			 M108.533,20.021c0,1.533-1.249,2.782-2.782,2.782H94.159c-1.533,0-2.782-1.249-2.782-2.782v-0.509
			c0-4.645,3.709-8.444,8.324-8.579c0.082,0.007,0.172,0.007,0.254,0.007s0.172,0,0.255-0.007c4.614,0.135,8.323,3.934,8.323,8.579
			V20.021z M109.423,17.045c-0.41-1.578-1.195-2.992-2.266-4.159c1.107-0.957,2.544-1.533,4.114-1.548c0.015,0,0.03,0,0.045,0
			s0.029,0,0.044,0c3.27,0.023,5.961,2.521,6.298,5.707H109.423z"/>
	</g>
</g>
</svg>
