<svg data-v-2d998ef9="" xmlns="http://www.w3.org/2000/svg" width="21" height="21" viewBox="0 0 21.862 32.752" class="absolute top-0 right-0 bottom-0 my-auto mr-2"><path data-v-2d998ef9="" d="M28.976,10.35a.456.456,0,1,0,.085.907A9.527,9.527,0,0,1,38.585,20.8c0,2.617-1.245,6.169-3.118,9.85a76.4,76.4,0,0,1-6.406,10.19,76.4,76.4,0,0,1-6.406-10.19c-1.873-3.681-3.118-7.234-3.118-9.85,0-4.36,2.23-8.064,6.215-9.2a.456.456,0,0,0-.241-.879C21.143,11.961,18.63,16.03,18.63,20.8c0,2.9,1.313,6.518,3.217,10.261a78.122,78.122,0,0,0,6.845,10.856.454.454,0,0,0,.737,0,78.12,78.12,0,0,0,6.845-10.856c1.9-3.744,3.217-7.363,3.217-10.261A10.448,10.448,0,0,0,29.061,10.35h-.085Zm.085,4.535a5.9,5.9,0,1,0,5.9,5.9A5.9,5.9,0,0,0,29.061,14.885Zm0,.907a4.989,4.989,0,1,1-4.989,4.989A4.982,4.982,0,0,1,29.061,15.792Z" transform="translate(-18.13 -9.85)" fill="#4d2545" stroke="#4d2545" stroke-width="1"></path></svg>
