<svg xmlns="http://www.w3.org/2000/svg" width="74" height="58" viewBox="0 0 74 58"><g><g><path fill="#4d2545" d="M37.137 21.861a11.382 11.382 0 0 1 11.407 11.407 11.382 11.382 0 0 1-11.407 11.406 11.382 11.382 0 0 1-11.406-11.406A11.382 11.382 0 0 1 37.137 21.86zm0-3.259c-8.08 0-14.665 6.586-14.665 14.666s6.585 14.665 14.665 14.665c8.08 0 14.666-6.585 14.666-14.665 0-8.08-6.585-14.666-14.666-14.666zM26.266 1.493a1.63 1.63 0 0 0-1.248.79L20.715 9.64H6.177c-2.68 0-4.888 2.209-4.888 4.889v37.478c0 2.68 2.208 4.888 4.888 4.888h50.514a1.63 1.63 0 1 0 0-3.259H6.177c-.93 0-1.629-.698-1.629-1.63V14.53c0-.931.699-1.63 1.63-1.63h15.48a1.63 1.63 0 0 0 1.4-.814l4.277-7.333h19.503l3.488 7.205a1.63 1.63 0 0 0 1.477.942h16.294c.931 0 1.63.699 1.63 1.63v37.478c0 .93-.699 1.63-1.63 1.63a1.63 1.63 0 1 0 0 3.258c2.68 0 4.889-2.208 4.889-4.888V14.529c0-2.68-2.209-4.889-4.889-4.889h-15.25l-3.514-7.23a1.63 1.63 0 0 0-1.477-.917H26.42a1.628 1.628 0 0 0-.153 0z"/><path fill="none" stroke="#4d2545" stroke-miterlimit="50" stroke-width=".5" d="M37.137 21.861a11.382 11.382 0 0 1 11.407 11.407 11.382 11.382 0 0 1-11.407 11.406 11.382 11.382 0 0 1-11.406-11.406A11.382 11.382 0 0 1 37.137 21.86zm0-3.259c-8.08 0-14.665 6.586-14.665 14.666s6.585 14.665 14.665 14.665c8.08 0 14.666-6.585 14.666-14.665 0-8.08-6.585-14.666-14.666-14.666zM26.266 1.493a1.63 1.63 0 0 0-1.248.79L20.715 9.64H6.177c-2.68 0-4.888 2.209-4.888 4.889v37.478c0 2.68 2.208 4.888 4.888 4.888h50.514a1.63 1.63 0 1 0 0-3.259H6.177c-.93 0-1.629-.698-1.629-1.63V14.53c0-.931.699-1.63 1.63-1.63h15.48a1.63 1.63 0 0 0 1.4-.814l4.277-7.333h19.503l3.488 7.205a1.63 1.63 0 0 0 1.477.942h16.294c.931 0 1.63.699 1.63 1.63v37.478c0 .93-.699 1.63-1.63 1.63a1.63 1.63 0 1 0 0 3.258c2.68 0 4.889-2.208 4.889-4.888V14.529c0-2.68-2.209-4.889-4.889-4.889h-15.25l-3.514-7.23a1.63 1.63 0 0 0-1.477-.917H26.42a1.628 1.628 0 0 0-.153 0z"/></g></g></svg>