<svg xmlns="http://www.w3.org/2000/svg" width="23" height="22" viewBox="0 0 23 22"><defs><linearGradient id="khf3a" x1="11.36" x2="11.36" y1="0" y2="21.62" gradientUnits="userSpaceOnUse"><stop offset="0" stop-color="#4d2545"/><stop offset="1" stop-color="#782541"/></linearGradient></defs><g><g><path fill="url(#khf3a)" d="M9.448 15.394c-1.75 0-3.352-.682-4.598-1.898-2.52-2.521-2.52-6.644 0-9.195a6.46 6.46 0 0 1 4.598-1.898c1.75 0 3.352.682 4.597 1.898 1.246 1.216 1.899 2.847 1.899 4.597 0 1.75-.682 3.352-1.899 4.598-1.216 1.246-2.877 1.898-4.597 1.898zm12.369 4.182l-5.31-5.309a8.842 8.842 0 0 0-.8-11.657A8.824 8.824 0 0 0 9.417 0C7.134 0 4.88.86 3.13 2.61c-3.47 3.47-3.47 9.106 0 12.577a8.824 8.824 0 0 0 6.288 2.61c1.899 0 3.797-.594 5.369-1.81l5.339 5.28c.237.237.534.356.86.356.297 0 .623-.119.86-.356.445-.445.445-1.216-.03-1.69z"/></g></g></svg>