<?xml version="1.0" encoding="utf-8"?>
<!-- Generator: Adobe Illustrator 16.0.0, SVG Export Plug-In . SVG Version: 6.00 Build 0)  -->
<!DOCTYPE svg PUBLIC "-//W3C//DTD SVG 1.1//EN" "http://www.w3.org/Graphics/SVG/1.1/DTD/svg11.dtd">
<svg version="1.1" id="Capa_1" xmlns="http://www.w3.org/2000/svg" xmlns:xlink="http://www.w3.org/1999/xlink" x="0px" y="0px"
	 width="14px" height="14px" viewBox="249 249 14 14" enable-background="new 249 249 14 14" xml:space="preserve">
<path fill="#4D2545" d="M259.273,258.037c0.689-0.94,1.102-2.096,1.102-3.349c0-3.136-2.552-5.688-5.688-5.688
	c-3.136,0-5.688,2.552-5.688,5.688c0,3.136,2.552,5.688,5.688,5.688c1.253,0,2.408-0.412,3.35-1.102l3.726,3.726l1.237-1.236
	C263,261.763,259.273,258.037,259.273,258.037L259.273,258.037z M254.688,258.626c-2.171,0-3.938-1.767-3.938-3.938
	s1.766-3.938,3.938-3.938c2.171,0,3.938,1.766,3.938,3.938S256.858,258.626,254.688,258.626z"/>
</svg>
